<svg width="590.8549926757812px" height="68.95999908447266px" xmlns="http://www.w3.org/2000/svg" viewBox="-45.4274963378906 40.52000045776367 590.8549926757812 68.95999908447266" style="background: none;" preserveAspectRatio="xMidYMid"><defs><filter id="editing-hover" x="-100%" y="-100%" width="300%" height="300%"><feFlood flood-color="#d8ebf9" result="flood"></feFlood><feComposite operator="in" in2="SourceAlpha" in="flood" result="shadow"></feComposite><feOffset dx="-4" dy="-4" in="SourceGraphic" result="offset-1"></feOffset><feOffset dx="4" dy="4" in="shadow" result="offset-2"></feOffset><feMerge><feMergeNode in="offset-2"></feMergeNode><feMergeNode in="offset-1"></feMergeNode></feMerge></filter></defs><g filter="url(#editing-hover)"><g transform="translate(40.535016775131226, 89.41499900817871)"><path d="M0.99-7.56L0.99-7.56L0.99-7.56Q0.99-13.42 4.03-17.11L4.03-17.11L4.03-17.11Q7.25-21.11 12.87-21.11L12.87-21.11L12.87-21.11Q16.93-21.11 18.97-19.14L18.97-19.14L18.97-19.14Q21.02-17.17 21.02-13.02L21.02-13.02L21.02-13.02Q21.02-6.70 17.79-3.01L17.79-3.01L17.79-3.01Q14.60 0.62 9.24 0.62L9.24 0.62L9.24 0.62Q5.05 0.62 3.02-1.47L3.02-1.47L3.02-1.47Q0.99-3.56 0.99-7.56ZM9.14-13.98L9.14-13.98L9.14-13.98Q7.75-8.40 7.75-4.00L7.75-4.00L7.75-4.00Q7.75-2.94 8.11-2.26L8.11-2.26L8.11-2.26Q8.46-1.58 9.41-1.58L9.41-1.58L9.41-1.58Q10.35-1.58 10.94-2.03L10.94-2.03L10.94-2.03Q11.53-2.48 12.00-3.50L12.00-3.50L12.00-3.50Q12.74-5.18 13.44-8.73L13.44-8.73L13.44-8.73Q14.14-12.28 14.20-13.75L14.20-13.75L14.20-13.75Q14.26-15.22 14.26-16.34L14.26-16.34L14.26-16.34Q14.26-17.45 13.92-18.17L13.92-18.17L13.92-18.17Q13.58-18.88 12.66-18.88L12.66-18.88L12.66-18.88Q11.75-18.88 11.13-18.32L11.13-18.32L11.13-18.32Q9.98-17.27 9.14-13.98ZM35.65 0.62L35.65 0.62L35.65 0.62Q31.90 0.62 31.90-2.29L31.90-2.29L31.90-2.29Q31.93-3.10 32.18-4.46L32.18-4.46L32.74-7.32L32.74-7.32Q33.57-11.35 33.57-12.24L33.57-12.24L33.57-12.24Q33.57-14.04 32.52-14.04L32.52-14.04L32.52-14.04Q30.75-14.04 29.82-9.42L29.82-9.42L27.99 0L21.76 0.62L24.99-15.84L30.07-16.43L29.57-13.39L29.57-13.39Q31.03-16.43 35.50-16.43L35.50-16.43L35.50-16.43Q37.66-16.43 38.58-15.52L38.58-15.52L38.58-15.52Q39.49-14.60 39.49-12.55L39.49-12.55L39.49-12.55Q39.49-10.63 38.50-6.14L38.50-6.14L38.50-6.14Q38.04-4.12 38.04-3.36L38.04-3.36L38.04-3.36Q38.04-2.60 38.46-2.17L38.46-2.17L38.46-2.17Q38.87-1.74 39.49-1.67L39.49-1.67L39.49-1.67Q39.18-0.62 38.11 0L38.11 0L38.11 0Q37.05 0.62 35.65 0.62ZM49.38-1.71L49.38-1.71L49.38-1.71Q48.42 0.62 45.35 0.62L45.35 0.62L45.35 0.62Q43.80 0.62 42.81-0.46L42.81-0.46L42.81-0.46Q42.01-1.36 42.01-2.39L42.01-2.39L42.01-2.39Q42.01-4.71 43.09-9.80L43.09-9.80L45.35-21.70L51.65-22.32L48.64-6.63L48.64-6.63Q48.11-4.34 48.11-3.53L48.11-3.53L48.11-3.53Q48.11-1.77 49.38-1.71ZM59.46-1.71L59.46-1.71L59.46-1.71Q58.50 0.62 55.43 0.62L55.43 0.62L55.43 0.62Q53.85 0.62 52.85-0.46L52.85-0.46L52.85-0.46Q52.02-1.43 52.02-2.39L52.02-2.39L52.02-2.39Q52.02-4.90 53.16-9.80L53.16-9.80L54.31-15.81L60.61-16.43L58.71-6.63L58.71-6.63Q58.19-4.34 58.19-3.53L58.19-3.53L58.19-3.53Q58.19-1.77 59.46-1.71ZM54.87-20.12L54.87-20.12L54.87-20.12Q54.87-21.33 55.88-21.98L55.88-21.98L55.88-21.98Q56.88-22.63 58.34-22.63L58.34-22.63L58.34-22.63Q59.80-22.63 60.68-21.98L60.68-21.98L60.68-21.98Q61.57-21.33 61.57-20.12L61.57-20.12L61.57-20.12Q61.57-18.91 60.59-18.29L60.59-18.29L60.59-18.29Q59.61-17.67 58.16-17.67L58.16-17.67L58.16-17.67Q56.70-17.67 55.78-18.29L55.78-18.29L55.78-18.29Q54.87-18.91 54.87-20.12ZM75.21 0.62L75.21 0.62L75.21 0.62Q71.45 0.62 71.45-2.29L71.45-2.29L71.45-2.29Q71.49-3.10 71.73-4.46L71.73-4.46L72.29-7.32L72.29-7.32Q73.13-11.35 73.13-12.24L73.13-12.24L73.13-12.24Q73.13-14.04 72.08-14.04L72.08-14.04L72.08-14.04Q70.31-14.04 69.38-9.42L69.38-9.42L67.55 0L61.32 0.62L64.54-15.84L69.63-16.43L69.13-13.39L69.13-13.39Q70.59-16.43 75.05-16.43L75.05-16.43L75.05-16.43Q77.22-16.43 78.14-15.52L78.14-15.52L78.14-15.52Q79.05-14.60 79.05-12.55L79.05-12.55L79.05-12.55Q79.05-10.63 78.06-6.14L78.06-6.14L78.06-6.14Q77.59-4.12 77.59-3.36L77.59-3.36L77.59-3.36Q77.59-2.60 78.01-2.17L78.01-2.17L78.01-2.17Q78.43-1.74 79.05-1.67L79.05-1.67L79.05-1.67Q78.74-0.62 77.67 0L77.67 0L77.67 0Q76.60 0.62 75.21 0.62ZM94.09-5.24L94.09-5.24L94.09-5.24Q94.86-4.71 94.86-3.55L94.86-3.55L94.86-3.55Q94.86-2.39 94.27-1.64L94.27-1.64L94.27-1.64Q93.68-0.90 92.72-0.40L92.72-0.40L92.72-0.40Q90.74 0.62 88.60 0.62L88.60 0.62L88.60 0.62Q86.46 0.62 85.20 0.15L85.20 0.15L85.20 0.15Q83.95-0.31 83.11-1.18L83.11-1.18L83.11-1.18Q81.47-2.82 81.47-5.83L81.47-5.83L81.47-5.83Q81.47-10.51 84.01-13.36L84.01-13.36L84.01-13.36Q86.74-16.43 91.48-16.43L91.48-16.43L91.48-16.43Q94.43-16.43 95.88-15.19L95.88-15.19L95.88-15.19Q96.97-14.26 96.97-12.74L96.97-12.74L96.97-12.74Q96.97-7.29 87.54-7.29L87.54-7.29L87.54-7.29Q87.42-6.48 87.42-5.80L87.42-5.80L87.42-5.80Q87.42-4.37 88.06-3.83L88.06-3.83L88.06-3.83Q88.69-3.29 89.87-3.29L89.87-3.29L89.87-3.29Q91.05-3.29 92.30-3.83L92.30-3.83L92.30-3.83Q93.56-4.37 94.09-5.24ZM87.76-8.62L87.76-8.62L87.76-8.62Q89.96-8.62 91.23-9.98L91.23-9.98L91.23-9.98Q92.50-11.28 92.50-13.36L92.50-13.36L92.50-13.36Q92.50-14.07 92.24-14.46L92.24-14.46L92.24-14.46Q91.98-14.85 91.45-14.85L91.45-14.85L91.45-14.85Q90.92-14.85 90.47-14.65L90.47-14.65L90.47-14.65Q90.02-14.45 89.56-13.76L89.56-13.76L89.56-13.76Q88.41-12.21 87.76-8.62ZM126.73 0.62L126.73 0.62L126.73 0.62Q122.98 0.62 122.98-2.29L122.98-2.29L122.98-2.29Q122.98-3.56 123.52-6.03L123.52-6.03L123.52-6.03Q124.06-8.49 124.25-9.49L124.25-9.49L124.25-9.49Q124.68-11.75 124.68-12.46L124.68-12.46L124.68-12.46Q124.68-14.04 123.50-14.04L123.50-14.04L123.50-14.04Q122.73-14.04 121.98-12.97L121.98-12.97L121.98-12.97Q121.24-11.90 120.90-9.77L120.90-9.77L118.98 0L112.93 0.62L114.61-7.81L114.61-7.81Q114.89-9.21 115.13-10.79L115.13-10.79L115.13-10.79Q115.38-12.37 115.38-12.62L115.38-12.62L115.38-12.62Q115.38-14.04 114.33-14.04L114.33-14.04L114.33-14.04Q113.61-14.04 112.84-12.99L112.84-12.99L112.84-12.99Q112.06-11.94 111.63-9.77L111.63-9.77L109.74 0L103.63 0.62L106.89-15.81L111.94-16.43L111.41-13.30L111.41-13.30Q112.22-14.97 113.71-15.70L113.71-15.70L113.71-15.70Q115.20-16.43 117.52-16.43L117.52-16.43L117.52-16.43Q118.85-16.43 119.72-15.78L119.72-15.78L119.72-15.78Q120.59-15.13 120.87-14.07L120.87-14.07L120.87-14.07Q121.40-15.16 122.74-15.79L122.74-15.79L122.74-15.79Q124.09-16.43 125.75-16.43L125.75-16.43L125.75-16.43Q127.41-16.43 128.23-16.07L128.23-16.07L128.23-16.07Q129.05-15.72 129.55-15.13L129.55-15.13L129.55-15.13Q130.39-14.04 130.39-12.06L130.39-12.06L130.39-12.06Q130.39-10.11 129.55-6.04L129.55-6.04L129.55-6.04Q129.12-4.06 129.12-3.33L129.12-3.33L129.12-3.33Q129.12-2.60 129.53-2.17L129.53-2.17L129.53-2.17Q129.95-1.74 130.57-1.67L130.57-1.67L130.57-1.67Q130.26-0.62 129.19 0L129.19 0L129.19 0Q128.12 0.62 126.73 0.62ZM142.91-1.30L142.91-1.30L142.91-1.30Q141.42 0.62 137.73 0.62L137.73 0.62L137.73 0.62Q135.81 0.62 134.42-0.54L134.42-0.54L134.42-0.54Q133.02-1.71 133.02-3.38L133.02-3.38L133.02-3.38Q133.02-4.31 133.11-4.77L133.11-4.77L135.19-15.81L141.48-16.43L139.22-4.46L139.22-4.46Q139.10-3.78 139.10-3.38L139.10-3.38L139.10-3.38Q139.10-1.58 140.18-1.58L140.18-1.58L140.18-1.58Q141.39-1.58 142.26-3.22L142.26-3.22L142.26-3.22Q142.54-3.75 142.66-4.43L142.66-4.43L144.86-15.81L150.97-16.43L148.68-4.34L148.68-4.34Q148.58-3.88 148.58-3.38L148.58-3.38L148.58-3.38Q148.58-2.88 148.86-2.34L148.86-2.34L148.86-2.34Q149.14-1.80 150.04-1.67L150.04-1.67L150.04-1.67Q149.85-0.93 149.20-0.43L149.20-0.43L149.20-0.43Q147.84 0.62 146.37 0.62L146.37 0.62L146.37 0.62Q144.89 0.62 144.03 0.09L144.03 0.09L144.03 0.09Q143.16-0.43 142.91-1.30ZM160.05-1.71L160.05-1.71L160.05-1.71Q159.09 0.62 156.02 0.62L156.02 0.62L156.02 0.62Q154.47 0.62 153.48-0.46L153.48-0.46L153.48-0.46Q152.67-1.36 152.67-2.39L152.67-2.39L152.67-2.39Q152.67-4.71 153.76-9.80L153.76-9.80L156.02-21.70L162.32-22.32L159.31-6.63L159.31-6.63Q158.78-4.34 158.78-3.53L158.78-3.53L158.78-3.53Q158.78-1.77 160.05-1.71ZM163.18-3.10L163.18-3.10L163.18-3.10Q163.18-3.94 163.62-6.04L163.62-6.04L165.26-14.41L163.43-14.41L163.56-15.35L163.56-15.35Q167.28-16.46 170.87-19.19L170.87-19.19L172.36-19.19L171.62-15.81L174.03-15.81L173.75-14.41L171.37-14.41L169.79-6.04L169.79-6.04Q169.38-4.12 169.38-3.47L169.38-3.47L169.38-3.47Q169.38-1.98 170.69-1.67L170.69-1.67L170.69-1.67Q170.38-0.62 169.26 0L169.26 0L169.26 0Q168.14 0.62 166.56 0.62L166.56 0.62L166.56 0.62Q164.98 0.62 164.08-0.37L164.08-0.37L164.08-0.37Q163.18-1.36 163.18-3.10ZM181.32-1.71L181.32-1.71L181.32-1.71Q180.36 0.62 177.29 0.62L177.29 0.62L177.29 0.62Q175.71 0.62 174.72-0.46L174.72-0.46L174.72-0.46Q173.88-1.43 173.88-2.39L173.88-2.39L173.88-2.39Q173.88-4.90 175.03-9.80L175.03-9.80L176.17-15.81L182.47-16.43L180.58-6.63L180.58-6.63Q180.05-4.34 180.05-3.53L180.05-3.53L180.05-3.53Q180.05-1.77 181.32-1.71ZM176.73-20.12L176.73-20.12L176.73-20.12Q176.73-21.33 177.74-21.98L177.74-21.98L177.74-21.98Q178.75-22.63 180.20-22.63L180.20-22.63L180.20-22.63Q181.66-22.63 182.54-21.98L182.54-21.98L182.54-21.98Q183.43-21.33 183.43-20.12L183.43-20.12L183.43-20.12Q183.43-18.91 182.45-18.29L182.45-18.29L182.45-18.29Q181.47-17.67 180.02-17.67L180.02-17.67L180.02-17.67Q178.56-17.67 177.65-18.29L177.65-18.29L177.65-18.29Q176.73-18.91 176.73-20.12ZM198.40-2.12L198.40-2.12L198.40-2.12Q197.10-0.81 195.32-0.09L195.32-0.09L195.32-0.09Q193.53 0.62 191.77 0.62L191.77 0.62L191.77 0.62Q190.00 0.62 189.38 0.31L189.38 0.31L188.42 5.58L182.13 6.20L186.40-15.81L191.46-16.34L191.05-14.20L191.05-14.20Q192.35-16.40 195.05-16.40L195.05-16.40L195.05-16.40Q198.09-16.40 199.70-14.45L199.70-14.45L199.70-14.45Q201.13-12.68 201.13-9.98L201.13-9.98L201.13-9.98Q201.13-7.29 200.41-5.36L200.41-5.36L200.41-5.36Q199.70-3.44 198.40-2.12ZM191.39-10.82L189.75-1.74L189.75-1.74Q190.40-1.18 191.21-1.18L191.21-1.18L191.21-1.18Q192.01-1.18 192.48-1.49L192.48-1.49L192.48-1.49Q192.94-1.80 193.28-2.42L193.28-2.42L193.28-2.42Q194.22-4.09 194.96-9.18L194.96-9.18L194.96-9.18Q195.18-10.66 195.18-12.12L195.18-12.12L195.18-12.12Q195.18-13.58 194.85-14.04L194.85-14.04L194.85-14.04Q194.53-14.51 193.91-14.51L193.91-14.51L193.91-14.51Q192.01-14.51 191.39-10.82L191.39-10.82ZM210.40-1.71L210.40-1.71L210.40-1.71Q209.44 0.62 206.37 0.62L206.37 0.62L206.37 0.62Q204.82 0.62 203.82-0.46L203.82-0.46L203.82-0.46Q203.02-1.36 203.02-2.39L203.02-2.39L203.02-2.39Q203.02-4.71 204.10-9.80L204.10-9.80L206.37-21.70L212.66-22.32L209.65-6.63L209.65-6.63Q209.13-4.34 209.13-3.53L209.13-3.53L209.13-3.53Q209.13-1.77 210.40-1.71ZM225.59-5.24L225.59-5.24L225.59-5.24Q226.36-4.71 226.36-3.55L226.36-3.55L226.36-3.55Q226.36-2.39 225.77-1.64L225.77-1.64L225.77-1.64Q225.18-0.90 224.22-0.40L224.22-0.40L224.22-0.40Q222.24 0.62 220.10 0.62L220.10 0.62L220.10 0.62Q217.96 0.62 216.71 0.15L216.71 0.15L216.71 0.15Q215.45-0.31 214.61-1.18L214.61-1.18L214.61-1.18Q212.97-2.82 212.97-5.83L212.97-5.83L212.97-5.83Q212.97-10.51 215.51-13.36L215.51-13.36L215.51-13.36Q218.24-16.43 222.98-16.43L222.98-16.43L222.98-16.43Q225.93-16.43 227.38-15.19L227.38-15.19L227.38-15.19Q228.47-14.26 228.47-12.74L228.47-12.74L228.47-12.74Q228.47-7.29 219.05-7.29L219.05-7.29L219.05-7.29Q218.92-6.48 218.92-5.80L218.92-5.80L218.92-5.80Q218.92-4.37 219.56-3.83L219.56-3.83L219.56-3.83Q220.19-3.29 221.37-3.29L221.37-3.29L221.37-3.29Q222.55-3.29 223.80-3.83L223.80-3.83L223.80-3.83Q225.06-4.37 225.59-5.24ZM219.26-8.62L219.26-8.62L219.26-8.62Q221.46-8.62 222.73-9.98L222.73-9.98L222.73-9.98Q224.01-11.28 224.01-13.36L224.01-13.36L224.01-13.36Q224.01-14.07 223.74-14.46L223.74-14.46L223.74-14.46Q223.48-14.85 222.95-14.85L222.95-14.85L222.95-14.85Q222.42-14.85 221.98-14.65L221.98-14.65L221.98-14.65Q221.53-14.45 221.06-13.76L221.06-13.76L221.06-13.76Q219.91-12.21 219.26-8.62ZM251.13-12.90L251.13-12.90L251.13-12.90Q251.13-11.59 250.05-10.79L250.05-10.79L250.05-10.79Q248.96-9.98 247.19-9.98L247.19-9.98L247.19-9.98Q246.45-9.98 246.02-10.20L246.02-10.20L246.02-10.20Q246.36-11.01 246.47-12.01L246.47-12.01L246.47-12.01Q246.57-13.02 246.57-13.30L246.57-13.30L246.57-13.30Q246.57-14.60 245.67-14.60L245.67-14.60L245.67-14.60Q245.05-14.60 244.36-13.83L244.36-13.83L244.36-13.83Q243.66-13.05 243.07-11.84L243.07-11.84L243.07-11.84Q241.77-9.05 241.77-6.23L241.77-6.23L241.77-6.23Q241.77-4.68 242.36-3.98L242.36-3.98L242.36-3.98Q242.95-3.29 244.25-3.29L244.25-3.29L244.25-3.29Q246.05-3.29 247.47-4.77L247.47-4.77L247.47-4.77Q247.88-5.24 248.09-5.77L248.09-5.77L248.09-5.77Q249.27-5.15 249.27-3.44L249.27-3.44L249.27-3.44Q249.27-1.71 247.35-0.56L247.35-0.56L247.35-0.56Q245.36 0.62 242.20 0.62L242.20 0.62L242.20 0.62Q235.91 0.62 235.91-6.04L235.91-6.04L235.91-6.04Q235.91-10.91 238.67-13.70L238.67-13.70L238.67-13.70Q241.33-16.43 246.23-16.43L246.23-16.43L246.23-16.43Q251.13-16.43 251.13-12.90ZM267.56-3.44L267.56-3.44L267.56-3.44Q267.56-2.08 268.96-1.67L268.96-1.67L268.96-1.67Q268.61-0.53 267.28 0.09L267.28 0.09L267.28 0.09Q266.17 0.62 264.94 0.62L264.94 0.62L264.94 0.62Q263.72 0.62 263.08 0.29L263.08 0.29L263.08 0.29Q262.45-0.03 262.10-0.56L262.10-0.56L262.10-0.56Q261.55-1.36 261.55-2.88L261.55-2.88L261.55-2.88Q261.55-3.78 262.04-6.26L262.04-6.26L262.48-8.62L262.48-8.62Q263.00-11.31 263.00-12.31L263.00-12.31L263.00-12.31Q263.00-14.04 262.04-14.04L262.04-14.04L262.04-14.04Q260.83-14.04 260.06-12.28L260.06-12.28L260.06-12.28Q259.75-11.59 259.53-10.57L259.53-10.57L257.42 0L251.19 0.62L255.56-21.70L261.79-22.32L261.55-21.08L261.55-21.08Q260.68-16.31 259.93-14.69L259.93-14.69L259.93-14.69Q261.67-16.43 264.86-16.43L264.86-16.43L264.86-16.43Q268.24-16.43 268.86-14.20L268.86-14.20L268.86-14.20Q269.08-13.48 269.08-12.87L269.08-12.87L269.08-12.87Q269.08-12.24 269.03-11.76L269.03-11.76L269.03-11.76Q268.99-11.28 268.83-10.42L268.83-10.42L268.43-8.18L267.72-4.68L267.72-4.68Q267.56-3.97 267.56-3.44ZM278.23 0.62L278.23 0.62L278.23 0.62Q271.40 0.62 271.40-5.80L271.40-5.80L271.40-5.80Q271.40-10.35 273.92-13.30L273.92-13.30L273.92-13.30Q276.58-16.43 281.20-16.43L281.20-16.43L281.20-16.43Q284.55-16.43 286.25-14.88L286.25-14.88L286.25-14.88Q287.96-13.33 287.96-10.07L287.96-10.07L287.96-10.07Q287.96-5.12 285.29-2.23L285.29-2.23L285.29-2.23Q282.69 0.62 278.23 0.62ZM279.03-12.87L279.03-12.87L279.03-12.87Q278.66-12.03 278.36-10.77L278.36-10.77L278.36-10.77Q278.07-9.52 277.70-7.53L277.70-7.53L277.70-7.53Q277.33-5.55 277.33-3.10L277.33-3.10L277.33-3.10Q277.33-2.29 277.59-1.77L277.59-1.77L277.59-1.77Q277.85-1.24 278.57-1.24L278.57-1.24L278.57-1.24Q279.28-1.24 279.73-1.58L279.73-1.58L279.73-1.58Q280.18-1.92 280.52-2.73L280.52-2.73L280.52-2.73Q281.14-4.15 281.63-6.80L281.63-6.80L281.63-6.80Q282.13-9.46 282.18-10.60L282.18-10.60L282.18-10.60Q282.22-11.75 282.22-12.60L282.22-12.60L282.22-12.60Q282.22-13.45 281.98-14.01L281.98-14.01L281.98-14.01Q281.73-14.57 281.03-14.57L281.03-14.57L281.03-14.57Q280.33-14.57 279.87-14.14L279.87-14.14L279.87-14.14Q279.40-13.70 279.03-12.87ZM297.23-1.71L297.23-1.71L297.23-1.71Q296.27 0.62 293.20 0.62L293.20 0.62L293.20 0.62Q291.62 0.62 290.63-0.46L290.63-0.46L290.63-0.46Q289.79-1.43 289.79-2.39L289.79-2.39L289.79-2.39Q289.79-4.90 290.94-9.80L290.94-9.80L292.08-15.81L298.38-16.43L296.48-6.63L296.48-6.63Q295.96-4.34 295.96-3.53L295.96-3.53L295.96-3.53Q295.96-1.77 297.23-1.71ZM292.64-20.12L292.64-20.12L292.64-20.12Q292.64-21.33 293.65-21.98L293.65-21.98L293.65-21.98Q294.66-22.63 296.11-22.63L296.11-22.63L296.11-22.63Q297.57-22.63 298.45-21.98L298.45-21.98L298.45-21.98Q299.34-21.33 299.34-20.12L299.34-20.12L299.34-20.12Q299.34-18.91 298.36-18.29L298.36-18.29L298.36-18.29Q297.38-17.67 295.93-17.67L295.93-17.67L295.93-17.67Q294.47-17.67 293.55-18.29L293.55-18.29L293.55-18.29Q292.64-18.91 292.64-20.12ZM315.08-12.90L315.08-12.90L315.08-12.90Q315.08-11.59 314.00-10.79L314.00-10.79L314.00-10.79Q312.91-9.98 311.15-9.98L311.15-9.98L311.15-9.98Q310.40-9.98 309.97-10.20L309.97-10.20L309.97-10.20Q310.31-11.01 310.42-12.01L310.42-12.01L310.42-12.01Q310.53-13.02 310.53-13.30L310.53-13.30L310.53-13.30Q310.53-14.60 309.63-14.60L309.63-14.60L309.63-14.60Q309.01-14.60 308.31-13.83L308.31-13.83L308.31-13.83Q307.61-13.05 307.02-11.84L307.02-11.84L307.02-11.84Q305.72-9.05 305.72-6.23L305.72-6.23L305.72-6.23Q305.72-4.68 306.31-3.98L306.31-3.98L306.31-3.98Q306.90-3.29 308.20-3.29L308.20-3.29L308.20-3.29Q310-3.29 311.43-4.77L311.43-4.77L311.43-4.77Q311.83-5.24 312.05-5.77L312.05-5.77L312.05-5.77Q313.22-5.15 313.22-3.44L313.22-3.44L313.22-3.44Q313.22-1.71 311.30-0.56L311.30-0.56L311.30-0.56Q309.32 0.62 306.16 0.62L306.16 0.62L306.16 0.62Q299.86 0.62 299.86-6.04L299.86-6.04L299.86-6.04Q299.86-10.91 302.62-13.70L302.62-13.70L302.62-13.70Q305.29-16.43 310.19-16.43L310.19-16.43L310.19-16.43Q315.08-16.43 315.08-12.90ZM328.48-5.24L328.48-5.24L328.48-5.24Q329.25-4.71 329.25-3.55L329.25-3.55L329.25-3.55Q329.25-2.39 328.66-1.64L328.66-1.64L328.66-1.64Q328.07-0.90 327.11-0.40L327.11-0.40L327.11-0.40Q325.13 0.62 322.99 0.62L322.99 0.62L322.99 0.62Q320.85 0.62 319.59 0.15L319.59 0.15L319.59 0.15Q318.34-0.31 317.50-1.18L317.50-1.18L317.50-1.18Q315.86-2.82 315.86-5.83L315.86-5.83L315.86-5.83Q315.86-10.51 318.40-13.36L318.40-13.36L318.40-13.36Q321.13-16.43 325.87-16.43L325.87-16.43L325.87-16.43Q328.82-16.43 330.27-15.19L330.27-15.19L330.27-15.19Q331.36-14.26 331.36-12.74L331.36-12.74L331.36-12.74Q331.36-7.29 321.94-7.29L321.94-7.29L321.94-7.29Q321.81-6.48 321.81-5.80L321.81-5.80L321.81-5.80Q321.81-4.37 322.45-3.83L322.45-3.83L322.45-3.83Q323.08-3.29 324.26-3.29L324.26-3.29L324.26-3.29Q325.44-3.29 326.69-3.83L326.69-3.83L326.69-3.83Q327.95-4.37 328.48-5.24ZM322.15-8.62L322.15-8.62L322.15-8.62Q324.35-8.62 325.62-9.98L325.62-9.98L325.62-9.98Q326.89-11.28 326.89-13.36L326.89-13.36L326.89-13.36Q326.89-14.07 326.63-14.46L326.63-14.46L326.63-14.46Q326.37-14.85 325.84-14.85L325.84-14.85L325.84-14.85Q325.31-14.85 324.86-14.65L324.86-14.65L324.86-14.65Q324.42-14.45 323.95-13.76L323.95-13.76L323.95-13.76Q322.80-12.21 322.15-8.62ZM351.35-5.24L351.35-5.24L351.35-5.24Q352.13-4.71 352.13-3.55L352.13-3.55L352.13-3.55Q352.13-2.39 351.54-1.64L351.54-1.64L351.54-1.64Q350.95-0.90 349.99-0.40L349.99-0.40L349.99-0.40Q348.01 0.62 345.87 0.62L345.87 0.62L345.87 0.62Q343.73 0.62 342.47 0.15L342.47 0.15L342.47 0.15Q341.22-0.31 340.38-1.18L340.38-1.18L340.38-1.18Q338.74-2.82 338.74-5.83L338.74-5.83L338.74-5.83Q338.74-10.51 341.28-13.36L341.28-13.36L341.28-13.36Q344.01-16.43 348.75-16.43L348.75-16.43L348.75-16.43Q351.70-16.43 353.15-15.19L353.15-15.19L353.15-15.19Q354.24-14.26 354.24-12.74L354.24-12.74L354.24-12.74Q354.24-7.29 344.81-7.29L344.81-7.29L344.81-7.29Q344.69-6.48 344.69-5.80L344.69-5.80L344.69-5.80Q344.69-4.37 345.32-3.83L345.32-3.83L345.32-3.83Q345.96-3.29 347.14-3.29L347.14-3.29L347.14-3.29Q348.32-3.29 349.57-3.83L349.57-3.83L349.57-3.83Q350.83-4.37 351.35-5.24ZM345.03-8.62L345.03-8.62L345.03-8.62Q347.23-8.62 348.50-9.98L348.50-9.98L348.50-9.98Q349.77-11.28 349.77-13.36L349.77-13.36L349.77-13.36Q349.77-14.07 349.51-14.46L349.51-14.46L349.51-14.46Q349.25-14.85 348.72-14.85L348.72-14.85L348.72-14.85Q348.19-14.85 347.74-14.65L347.74-14.65L347.74-14.65Q347.29-14.45 346.83-13.76L346.83-13.76L346.83-13.76Q345.68-12.21 345.03-8.62ZM359.41 0.09L359.41 0.09L359.41 0.09Q358.42 0.62 357.06 0.62L357.06 0.62L357.06 0.62Q355.69 0.62 354.95-0.08L354.95-0.08L354.95-0.08Q354.21-0.78 354.21-2.12L354.21-2.12L354.21-2.12Q354.21-3.47 355.15-4.79L355.15-4.79L355.15-4.79Q356.10-6.11 357.51-6.85L357.51-6.85L357.51-6.85Q358.92-7.59 359.91-8.03L359.91-8.03L357.96-12.52L357.96-12.52Q357.43-13.67 356.44-13.67L356.44-13.67L356.19-13.64L356.10-13.64L356.10-13.64Q356.28-14.72 357.55-15.56L357.55-15.56L357.55-15.56Q358.83-16.43 360.28-16.43L360.28-16.43L360.28-16.43Q362.64-16.43 363.72-14.07L363.72-14.07L363.97-13.58L365.30-10.29L365.30-10.29Q366.14-10.66 366.50-11.36L366.50-11.36L366.50-11.36Q366.85-12.06 366.85-13.44L366.85-13.44L366.85-13.44Q366.85-14.82 366.11-15.69L366.11-15.69L366.11-15.69Q367.29-16.43 368.84-16.43L368.84-16.43L368.84-16.43Q371.63-16.43 371.63-13.73L371.63-13.73L371.63-13.73Q371.63-10.79 367.94-9.08L367.94-9.08L366.08-8.21L367.75-3.91L367.75-3.91Q368.25-2.60 369.15-2.05L369.15-2.05L369.15-2.05Q369.52-1.80 369.95-1.77L369.95-1.77L369.95-1.77Q369.02-0.25 367.01 0.43L367.01 0.43L367.01 0.43Q366.39 0.62 365.55 0.62L365.55 0.62L365.55 0.62Q364.72 0.62 363.75 0.05L363.75 0.05L363.75 0.05Q362.79-0.53 362.45-1.43L362.45-1.43L360.75-5.86L360.75-5.86Q359.01-5.08 359.01-2.26L359.01-2.26L359.01-2.26Q359.01-0.96 359.41 0.09ZM373.66-0.93L373.66-0.93L373.66-0.93Q372.93-1.74 372.60-3.01L372.60-3.01L372.60-3.01Q372.28-4.28 372.28-6.35L372.28-6.35L372.28-6.35Q372.28-8.43 372.99-10.32L372.99-10.32L372.99-10.32Q373.71-12.21 375.01-13.58L375.01-13.58L375.01-13.58Q377.67-16.43 382.08-16.43L382.08-16.43L382.08-16.43Q383.66-16.43 384.80-15.90L384.80-15.90L390.10-16.43L387.81-4.34L387.81-4.34Q387.72-3.97 387.72-3.29L387.72-3.29L387.72-3.29Q387.72-2.60 388.14-2.17L388.14-2.17L388.14-2.17Q388.55-1.74 389.17-1.67L389.17-1.67L389.17-1.67Q388.86-0.62 387.73 0L387.73 0L387.73 0Q386.60 0.62 385.33 0.62L385.33 0.62L385.33 0.62Q384.06 0.62 383.21 0.14L383.21 0.14L383.21 0.14Q382.35-0.34 382.11-1.15L382.11-1.15L382.11-1.15Q381.61-0.37 380.56 0.12L380.56 0.12L380.56 0.12Q379.50 0.62 378.09 0.62L378.09 0.62L378.09 0.62Q376.68 0.62 375.53 0.25L375.53 0.25L375.53 0.25Q374.39-0.12 373.66-0.93ZM380.20-13.52L380.20-13.52L380.20-13.52Q379.84-12.96 379.53-12.01L379.53-12.01L379.53-12.01Q379.22-11.07 378.71-8.54L378.71-8.54L378.71-8.54Q378.20-6.01 378.20-4.22L378.20-4.22L378.20-4.22Q378.20-2.42 378.48-1.89L378.48-1.89L378.48-1.89Q378.76-1.36 379.25-1.36L379.25-1.36L379.25-1.36Q380.25-1.36 380.97-2.31L380.97-2.31L380.97-2.31Q381.70-3.25 381.98-4.93L381.98-4.93L383.63-14.01L383.63-14.01Q382.97-14.57 382.21-14.57L382.21-14.57L382.21-14.57Q381.46-14.57 381.01-14.32L381.01-14.32L381.01-14.32Q380.56-14.07 380.20-13.52ZM414.10 0.62L414.10 0.62L414.10 0.62Q410.35 0.62 410.35-2.29L410.35-2.29L410.35-2.29Q410.35-3.56 410.89-6.03L410.89-6.03L410.89-6.03Q411.43-8.49 411.62-9.49L411.62-9.49L411.62-9.49Q412.05-11.75 412.05-12.46L412.05-12.46L412.05-12.46Q412.05-14.04 410.87-14.04L410.87-14.04L410.87-14.04Q410.10-14.04 409.36-12.97L409.36-12.97L409.36-12.97Q408.61-11.90 408.27-9.77L408.27-9.77L406.35 0L400.30 0.62L401.98-7.81L401.98-7.81Q402.26-9.21 402.50-10.79L402.50-10.79L402.50-10.79Q402.75-12.37 402.75-12.62L402.75-12.62L402.75-12.62Q402.75-14.04 401.70-14.04L401.70-14.04L401.70-14.04Q400.99-14.04 400.21-12.99L400.21-12.99L400.21-12.99Q399.44-11.94 399.00-9.77L399.00-9.77L397.11 0L391.00 0.62L394.26-15.81L399.31-16.43L398.78-13.30L398.78-13.30Q399.59-14.97 401.08-15.70L401.08-15.70L401.08-15.70Q402.57-16.43 404.89-16.43L404.89-16.43L404.89-16.43Q406.22-16.43 407.09-15.78L407.09-15.78L407.09-15.78Q407.96-15.13 408.24-14.07L408.24-14.07L408.24-14.07Q408.77-15.16 410.11-15.79L410.11-15.79L410.11-15.79Q411.46-16.43 413.12-16.43L413.12-16.43L413.12-16.43Q414.78-16.43 415.60-16.07L415.60-16.07L415.60-16.07Q416.42-15.72 416.92-15.13L416.92-15.13L416.92-15.13Q417.76-14.04 417.76-12.06L417.76-12.06L417.76-12.06Q417.76-10.11 416.92-6.04L416.92-6.04L416.92-6.04Q416.49-4.06 416.49-3.33L416.49-3.33L416.49-3.33Q416.49-2.60 416.90-2.17L416.90-2.17L416.90-2.17Q417.32-1.74 417.94-1.67L417.94-1.67L417.94-1.67Q417.63-0.62 416.56 0L416.56 0L416.56 0Q415.49 0.62 414.10 0.62Z" fill="#5699d2"></path></g></g><style>text {
  font-size: 64px;
  font-family: Arial Black;
  dominant-baseline: central;
  text-anchor: middle;
}</style></svg>