<svg version="1.2" xmlns="http://www.w3.org/2000/svg" viewBox="0 0 1280 720" width="1280" height="720">
	<title>template</title>
	<style>
		tspan { white-space:pre } 
		.s0 { fill: #ffffff } 
		.s1 { fill: #0000ff } 
		.t2 { font-size: 24px;fill: #1a1a1a;font-weight: 800;font-family: "NotoSerif-ExtraBold", "Noto Serif ExtBd" } 
		.t3 { font-size: 61px;fill: #1a1a1a;font-weight: 250;font-family: "Aileron-Thin", "Aileron" } 
	</style>
	<path id="Background" class="s0" d="m0 0h1280v720h-1280z"/>
	<g id="flower">
		<path id="Layer" fill-rule="evenodd" class="s1" d="m635.8 304.6c-4.9 88.2-14.6 139.5-31 155-28.1 42.7-86.3 32-75.6-25.2-48.5 20.4-72.7-10.6-56.2-52.3 17.4-32 71.7-61 145.3-89.1l4.9 4.8-18.4 24.2c0 4.9 1.9 6.8 6.7 4.9l16.5-24.2zm-27.1 41.6c0-8.7-6.8-15.5-14.6-15.5-7.7 0-14.5 6.8-14.5 15.5 0 7.8 6.8 14.6 14.5 14.6 7.8 0 14.6-6.8 14.6-14.6zm7.7-63c-85.2 23.3-136.6 29.1-156 19.4-50.4-14.5-58.1-72.7-0.9-80.4-34-39.7-11.7-72.7 33.9-69.8 34.9 7.8 79.4 49.4 128.8 111.5l-2.9 5.8-29-10.7q-7.3 2.9-2.9 8.7l29 7.8zm-47.5-12.6c7.8-2.9 12.6-10.7 9.7-18.4-2.9-7.8-10.6-12.6-18.4-9.7-7.7 2.9-12.6 10.6-9.7 18.4 2 7.8 10.7 12.6 18.4 9.7zm62.1-11.6c-48.5-74.7-69.8-121.2-66.9-143.5-1.9-52.3 51.4-76.5 76.6-25.1 27.1-44.6 64.9-34 76.5 9.6 3.9 36.9-22.3 92.1-65.9 158l-5.8-1v-31c-2.9-3.9-5.8-4.8-8.7 0l0.9 30.1zm-2.9-49.5c4.9 6.8 14.6 7.8 21.4 2.9 5.8-4.8 7.7-13.5 2.9-20.3-4.9-6.8-14.6-8.7-21.4-3.9-5.8 4.9-7.7 14.6-2.9 21.3zm31 55.3c55.3-68.8 93.1-104.7 115.4-107.6 48.4-18.4 89.1 24.2 47.4 64 50.4 12.6 52.4 51.3 13.6 75.5-32.9 15.5-93 7.8-169.6-13.5l-0.9-5.8 29-9.7c2.9-3.9 2.9-5.8-2.9-7.8l-27.1 10.7zm45.5-18.4c-4.8 6.8-2.9 16.4 3.9 21.3 5.8 4.8 15.5 2.9 20.4-3.9 4.8-6.8 2.9-15.5-2.9-20.3-6.8-4.9-16.5-3.9-21.4 2.9zm-42.6 46.5c82.4 31 127.9 56.2 137.6 76.5 32.9 40.7 4.8 92.1-46.5 65 3.9 52.3-32 65.8-67.8 36.8-24.3-26.2-35.9-86.3-39.8-165.7l5.8-2.9 18.5 25.2c3.8 1.9 6.7 0 6.7-5.8l-18.4-23.3zm31 37.8c-7.7-2-16.4 1.9-18.4 9.7-2.9 7.7 2 16.5 9.7 18.4 7.8 2.9 15.5-1 18.4-8.7 2.9-8.8-1.9-16.5-9.7-19.4z"/>
	</g>
	<text id="Sign up Now" style="transform: matrix(1,0,0,1,640,657.54)" >
		<tspan x="-76.1" y="0" class="t2">S</tspan><tspan  y="0" class="t2">i</tspan><tspan  y="0" class="t2">g</tspan><tspan  y="0" class="t2">n</tspan><tspan  y="0" class="t2"> </tspan><tspan  y="0" class="t2">u</tspan><tspan  y="0" class="t2">p</tspan><tspan  y="0" class="t2"> </tspan><tspan  y="0" class="t2">N</tspan><tspan  y="0" class="t2">o</tspan><tspan  y="0" class="t2">w</tspan><tspan  y="0" class="t2">
</tspan>
	</text>
	<text id="Trac Nghiem Online" style="transform: matrix(1,0,0,1,640,620.94)" >
		<tspan x="-293.2" y="0" class="t3">T</tspan><tspan  y="0" class="t3">R</tspan><tspan  y="0" class="t3">A</tspan><tspan  y="0" class="t3">C</tspan><tspan  y="0" class="t3">N</tspan><tspan  y="0" class="t3">G</tspan><tspan  y="0" class="t3">H</tspan><tspan  y="0" class="t3">I</tspan><tspan  y="0" class="t3">E</tspan><tspan  y="0" class="t3">M</tspan><tspan  y="0" class="t3"> </tspan><tspan  y="0" class="t3">O</tspan><tspan  y="0" class="t3">N</tspan><tspan  y="0" class="t3">L</tspan><tspan  y="0" class="t3">I</tspan><tspan  y="0" class="t3">N</tspan><tspan  y="0" class="t3">E</tspan><tspan  y="0" class="t3">
</tspan>
	</text>
</svg>